<?xml version="1.0" encoding="UTF-8" standalone="no"?>
<!-- Created with Inkscape (http://www.inkscape.org/) -->

<svg
   version="1.1"
   id="svg1"
   width="1920"
   height="1080"
   viewBox="0 0 1920 1080"
   sodipodi:docname="level2.svg"
   inkscape:version="1.3.2 (091e20e, 2023-11-25, custom)"
   xml:space="preserve"
   xmlns:inkscape="http://www.inkscape.org/namespaces/inkscape"
   xmlns:sodipodi="http://sodipodi.sourceforge.net/DTD/sodipodi-0.dtd"
   xmlns="http://www.w3.org/2000/svg"
   xmlns:svg="http://www.w3.org/2000/svg"><defs
     id="defs1"><inkscape:path-effect
       effect="fill_between_many"
       method="originald"
       linkedpaths="#image1,0,1|"
       id="path-effect1" /></defs><sodipodi:namedview
     id="namedview1"
     pagecolor="#ffffff"
     bordercolor="#000000"
     borderopacity="0.25"
     inkscape:showpageshadow="2"
     inkscape:pageopacity="0.0"
     inkscape:pagecheckerboard="0"
     inkscape:deskcolor="#d1d1d1"
     inkscape:zoom="1.4614583"
     inkscape:cx="454.3407"
     inkscape:cy="705.80185"
     inkscape:window-width="1920"
     inkscape:window-height="1009"
     inkscape:window-x="-8"
     inkscape:window-y="-8"
     inkscape:window-maximized="1"
     inkscape:current-layer="svg1" /><path
     id="path6"
     style="display:inline;fill:#000000"
     d="M 643.37804,777 H 374.22266 V 568 h -46 v 240.82227 l 316.36422,2.737 z"
     sodipodi:nodetypes="ccccccc" /><path
     style="display:inline;fill:#000000"
     d="m 714.22221,834.82251 0.61088,26.28938 -451.61088,1.71062 v -26.62366 z"
     id="path5"
     sodipodi:nodetypes="ccccc" /><path
     style="display:inline;fill:#000000"
     d="m 199.22221,468.82251 27.30657,1.07334 1.69343,415.92666 h 580 V 500 H 270 v -31.17749 h 563.22221 v 444 h -634 z"
     id="path4"
     sodipodi:nodetypes="ccccccccccc" /><path
     style="display:inline;fill:#000000"
     d="m 146.22221,418.82251 h 739 v 544 l -17,-0.43997 V 441.82251 h -698 v 503 h 638 l -0.0978,16.6315 -661.90215,1.3685 z"
     id="path3" /><path
     style="display:inline;fill:#000000"
     d="m 94.222213,377.82251 16.999997,0.7821 v 612.2179 h 810 v -600 h -756 l -0.10622,-13.48384 773.10622,0.48384 V 1003.8225 H 94.222213 Z"
     id="path2" /><path
     id="path13"
     style="display:inline;fill:#000000"
     d="M 411.48971,600 H 680 v 145.81417 l 50,1.35509 V 570 H 410.95633 Z"
     sodipodi:nodetypes="ccccccc" /><path
     style="fill:#000000;fill-opacity:1"
     d="m 270.27797,806.72844 0.68425,-281.9102 507.71205,0.68425 2.73699,332.54455 -18.4747,0.68425 -1.3685,-316.1226 -463.23592,1.3685 -1.36849,264.11974 z"
     id="path14"
     sodipodi:nodetypes="ccccccccc" /></svg>
